<mxfile host="app.diagrams.net" modified="2023-06-27T06:32:01.819Z" agent="Mozilla/5.0 (Windows NT 10.0; Win64; x64) AppleWebKit/537.36 (KHTML, like Gecko) Chrome/114.0.0.0 Safari/537.36" etag="mB3RZ0q_psE91IvWwClj" version="21.5.0" type="device">
  <diagram name="PÃ¡gina-1" id="5UKmLL4VEVPNtywJ423e">
    <mxGraphModel dx="2062" dy="578" grid="1" gridSize="10" guides="1" tooltips="1" connect="1" arrows="1" fold="1" page="1" pageScale="1" pageWidth="827" pageHeight="1169" math="0" shadow="0">
      <root>
        <mxCell id="0" />
        <mxCell id="1" parent="0" />
        <mxCell id="juABpbqcT0G1d2rN8Gj8-10" value="productos&lt;br&gt;&lt;div style=&quot;text-align: left;&quot;&gt;{&lt;/div&gt;&lt;div style=&quot;border-color: var(--border-color); text-align: left;&quot;&gt;&lt;span style=&quot;border-color: var(--border-color); background-color: initial;&quot;&gt;nombre: &quot;String&quot;,&lt;/span&gt;&lt;/div&gt;&lt;div style=&quot;border-color: var(--border-color); text-align: left;&quot;&gt;&lt;span style=&quot;border-color: var(--border-color); background-color: initial;&quot;&gt;descripcion: &quot;String&quot;,&lt;/span&gt;&lt;/div&gt;&lt;div style=&quot;border-color: var(--border-color); text-align: left;&quot;&gt;&lt;span style=&quot;border-color: var(--border-color); background-color: initial;&quot;&gt;imagen: &quot;String&quot;,&lt;/span&gt;&lt;/div&gt;&lt;div style=&quot;border-color: var(--border-color); text-align: left;&quot;&gt;&lt;span style=&quot;background-color: initial;&quot;&gt;precio: float,&lt;/span&gt;&lt;br&gt;&lt;/div&gt;&lt;div style=&quot;border-color: var(--border-color); text-align: left;&quot;&gt;&lt;span style=&quot;background-color: initial;&quot;&gt;tipo_producto: &quot;String&quot; (pizza/hamburguesa/bebida),&lt;/span&gt;&lt;/div&gt;&lt;div style=&quot;border-color: var(--border-color); text-align: left;&quot;&gt;categoria_pizza: &quot;_id_categoria&quot;&lt;/div&gt;&lt;div style=&quot;border-color: var(--border-color); text-align: left;&quot;&gt;&lt;br&gt;&lt;/div&gt;&lt;div style=&quot;border-color: var(--border-color); text-align: left;&quot;&gt;&lt;br&gt;&lt;/div&gt;&lt;div style=&quot;border-color: var(--border-color); text-align: left;&quot;&gt;{&lt;/div&gt;&lt;div style=&quot;border-color: var(--border-color); text-align: left;&quot;&gt;&lt;span style=&quot;&quot;&gt;&lt;span style=&quot;white-space: pre;&quot;&gt;&amp;nbsp;&amp;nbsp;&amp;nbsp;&amp;nbsp;&lt;span style=&quot;white-space: pre;&quot;&gt;&#x9;&lt;/span&gt;&lt;/span&gt;&lt;/span&gt;nombre: &quot;String&quot;,&lt;/div&gt;&lt;div style=&quot;border-color: var(--border-color); text-align: left;&quot;&gt;&lt;span style=&quot;&quot;&gt;&lt;span style=&quot;white-space: pre;&quot;&gt;&amp;nbsp;&amp;nbsp;&amp;nbsp;&amp;nbsp;&lt;span style=&quot;white-space: pre;&quot;&gt;&#x9;&lt;/span&gt;&lt;/span&gt;&lt;/span&gt;direccion: {&lt;br style=&quot;border-color: var(--border-color);&quot;&gt;&lt;span style=&quot;border-color: var(--border-color);&quot;&gt;&lt;span style=&quot;border-color: var(--border-color);&quot;&gt;&amp;nbsp;&amp;nbsp;&amp;nbsp;&amp;nbsp;&lt;/span&gt;&lt;span style=&quot;border-color: var(--border-color);&quot;&gt;&lt;span style=&quot;border-color: var(--border-color);&quot;&gt;&amp;nbsp;&amp;nbsp;&amp;nbsp;&amp;nbsp;&lt;span style=&quot;&quot;&gt;&lt;span style=&quot;white-space: pre;&quot;&gt;&amp;nbsp;&amp;nbsp;&amp;nbsp;&amp;nbsp;&lt;/span&gt;&lt;/span&gt;&lt;/span&gt;&lt;/span&gt;c&lt;/span&gt;alle: &quot;String&quot;,&lt;br style=&quot;border-color: var(--border-color);&quot;&gt;&lt;span style=&quot;border-color: var(--border-color);&quot;&gt;&amp;nbsp;&amp;nbsp;&amp;nbsp;&amp;nbsp;&lt;/span&gt;&lt;span style=&quot;border-color: var(--border-color);&quot;&gt;&amp;nbsp;&amp;nbsp;&amp;nbsp;&amp;nbsp;&lt;span style=&quot;&quot;&gt;&lt;span style=&quot;white-space: pre;&quot;&gt;&amp;nbsp;&amp;nbsp;&amp;nbsp;&amp;nbsp;&lt;/span&gt;&lt;/span&gt;&lt;/span&gt;numero: Integer,&lt;br style=&quot;border-color: var(--border-color);&quot;&gt;&lt;span style=&quot;border-color: var(--border-color);&quot;&gt;&amp;nbsp;&amp;nbsp;&amp;nbsp;&amp;nbsp;&lt;/span&gt;&lt;span style=&quot;border-color: var(--border-color);&quot;&gt;&amp;nbsp;&amp;nbsp;&amp;nbsp;&lt;span style=&quot;&quot;&gt;&lt;span style=&quot;white-space: pre;&quot;&gt;&amp;nbsp;&amp;nbsp;&amp;nbsp;&amp;nbsp;&lt;/span&gt;&lt;span style=&quot;&quot;&gt;&lt;span style=&quot;white-space: pre;&quot;&gt;&amp;nbsp;&amp;nbsp;&amp;nbsp;&amp;nbsp;&lt;/span&gt;&lt;/span&gt;&lt;/span&gt;&lt;/span&gt;piso: &quot;String&quot;,&lt;br style=&quot;border-color: var(--border-color);&quot;&gt;&lt;span style=&quot;border-color: var(--border-color);&quot;&gt;&amp;nbsp;&amp;nbsp;&amp;nbsp;&amp;nbsp;&lt;/span&gt;&lt;span style=&quot;border-color: var(--border-color);&quot;&gt;&amp;nbsp;&amp;nbsp;&amp;nbsp;&amp;nbsp;&lt;span style=&quot;&quot;&gt;&lt;span style=&quot;white-space: pre;&quot;&gt;&amp;nbsp;&amp;nbsp;&amp;nbsp;&amp;nbsp;&lt;/span&gt;&lt;/span&gt;&lt;/span&gt;puerta: &quot;String&quot;,&lt;br style=&quot;border-color: var(--border-color);&quot;&gt;&lt;span style=&quot;border-color: var(--border-color);&quot;&gt;&amp;nbsp;&amp;nbsp;&amp;nbsp;&amp;nbsp;&lt;/span&gt;&lt;span style=&quot;border-color: var(--border-color);&quot;&gt;&amp;nbsp;&amp;nbsp;&amp;nbsp;&amp;nbsp;&lt;span style=&quot;&quot;&gt;&lt;span style=&quot;white-space: pre;&quot;&gt;&amp;nbsp;&amp;nbsp;&amp;nbsp;&amp;nbsp;&lt;/span&gt;&lt;/span&gt;&lt;/span&gt;ciudad: &quot;String&quot;,&lt;br style=&quot;border-color: var(--border-color);&quot;&gt;&lt;span style=&quot;border-color: var(--border-color);&quot;&gt;&amp;nbsp;&amp;nbsp;&amp;nbsp;&amp;nbsp;&lt;span style=&quot;&quot;&gt;&lt;span style=&quot;white-space: pre;&quot;&gt;&amp;nbsp;&amp;nbsp;&amp;nbsp;&amp;nbsp;&lt;/span&gt;&lt;span style=&quot;&quot;&gt;&lt;span style=&quot;white-space: pre;&quot;&gt;&amp;nbsp;&amp;nbsp;&amp;nbsp;&amp;nbsp;&lt;/span&gt;&lt;/span&gt;&lt;/span&gt;&lt;/span&gt;codigo_postal: &quot;String&quot;,&lt;br style=&quot;border-color: var(--border-color);&quot;&gt;&lt;span style=&quot;border-color: var(--border-color);&quot;&gt;&amp;nbsp;&amp;nbsp;&amp;nbsp;&amp;nbsp;&lt;span style=&quot;&quot;&gt;&lt;span style=&quot;white-space: pre;&quot;&gt;&amp;nbsp;&amp;nbsp;&amp;nbsp;&amp;nbsp;&lt;/span&gt;&lt;span style=&quot;&quot;&gt;&lt;span style=&quot;white-space: pre;&quot;&gt;&amp;nbsp;&amp;nbsp;&amp;nbsp;&amp;nbsp;&lt;/span&gt;&lt;/span&gt;&lt;/span&gt;&lt;/span&gt;pais: &quot;String&quot;&lt;br style=&quot;border-color: var(--border-color);&quot;&gt;&lt;span style=&quot;border-color: var(--border-color);&quot;&gt;&amp;nbsp;&amp;nbsp;&amp;nbsp;&lt;span style=&quot;&quot;&gt;&lt;span style=&quot;white-space: pre;&quot;&gt;&amp;nbsp;&amp;nbsp;&amp;nbsp;&amp;nbsp;&lt;/span&gt;&lt;/span&gt;&amp;nbsp;&lt;/span&gt;},&lt;/div&gt;&lt;div style=&quot;border-color: var(--border-color); text-align: left;&quot;&gt;&lt;span style=&quot;&quot;&gt;&lt;span style=&quot;white-space: pre;&quot;&gt;&amp;nbsp;&amp;nbsp;&amp;nbsp;&amp;nbsp;&lt;span style=&quot;white-space: pre;&quot;&gt;&#x9;&lt;/span&gt;&lt;/span&gt;&lt;/span&gt;telefono: &quot;String&quot;,&lt;/div&gt;&lt;div style=&quot;border-color: var(--border-color); text-align: left;&quot;&gt;&lt;span style=&quot;white-space: pre;&quot;&gt;&#x9;&lt;/span&gt;fax: &quot;String&quot;,&lt;/div&gt;&lt;div style=&quot;border-color: var(--border-color); text-align: left;&quot;&gt;&lt;span style=&quot;white-space: pre;&quot;&gt;&#x9;&lt;/span&gt;NIF: &quot;String&quot;&lt;br style=&quot;border-color: var(--border-color);&quot;&gt;}&lt;/div&gt;&lt;div style=&quot;border-color: var(--border-color); text-align: left;&quot;&gt;}&lt;/div&gt;" style="rounded=0;whiteSpace=wrap;html=1;" parent="1" vertex="1">
          <mxGeometry x="-200" y="30" width="190" height="400" as="geometry" />
        </mxCell>
        <mxCell id="juABpbqcT0G1d2rN8Gj8-15" value="&lt;div style=&quot;text-align: center; border-color: var(--border-color);&quot;&gt;pedidos&lt;/div&gt;&lt;span style=&quot;&quot;&gt;{&lt;/span&gt;&lt;br style=&quot;border-color: var(--border-color);&quot;&gt;cliente: &quot;_id_cliente&quot;,&lt;br&gt;fecha_hora: Date,&lt;br&gt;reparto: &quot;String&quot; (domicilio/tienda),&lt;br&gt;detallado: [&lt;br&gt;&lt;span style=&quot;&quot;&gt;&lt;span style=&quot;white-space: pre;&quot;&gt;&amp;nbsp;&amp;nbsp;&amp;nbsp;&amp;nbsp;&lt;/span&gt;&lt;/span&gt;{&lt;br&gt;&lt;span style=&quot;&quot;&gt;&lt;span style=&quot;white-space: pre;&quot;&gt;&amp;nbsp;&amp;nbsp;&amp;nbsp;&amp;nbsp;&lt;/span&gt;&lt;/span&gt;&lt;span style=&quot;&quot;&gt;&lt;span style=&quot;white-space: pre;&quot;&gt;&amp;nbsp;&amp;nbsp;&amp;nbsp;&amp;nbsp;&lt;/span&gt;&lt;/span&gt;producto: &quot;_id_producto&quot;,&lt;br&gt;&lt;span style=&quot;&quot;&gt;&lt;span style=&quot;white-space: pre;&quot;&gt;&amp;nbsp;&amp;nbsp;&amp;nbsp;&amp;nbsp;&lt;/span&gt;&lt;/span&gt;&lt;span style=&quot;&quot;&gt;&lt;span style=&quot;white-space: pre;&quot;&gt;&amp;nbsp;&amp;nbsp;&amp;nbsp;&amp;nbsp;&lt;/span&gt;&lt;/span&gt;cantidad: Integer&lt;br&gt;&lt;span style=&quot;&quot;&gt;&lt;span style=&quot;white-space: pre;&quot;&gt;&amp;nbsp;&amp;nbsp;&amp;nbsp;&amp;nbsp;&lt;/span&gt;&lt;/span&gt;},&lt;br&gt;&lt;span style=&quot;&quot;&gt;&lt;span style=&quot;white-space: pre;&quot;&gt;&amp;nbsp;&amp;nbsp;&amp;nbsp;&amp;nbsp;&lt;/span&gt;&lt;/span&gt;{&lt;br&gt;&lt;span style=&quot;&quot;&gt;&lt;span style=&quot;white-space: pre;&quot;&gt;&amp;nbsp;&amp;nbsp;&amp;nbsp;&amp;nbsp;&lt;/span&gt;&lt;/span&gt;&lt;span style=&quot;&quot;&gt;&lt;span style=&quot;white-space: pre;&quot;&gt;&amp;nbsp;&amp;nbsp;&amp;nbsp;&amp;nbsp;&lt;/span&gt;&lt;/span&gt;producto: &quot;_id_producto&quot;,&lt;br style=&quot;border-color: var(--border-color);&quot;&gt;&#x9;&lt;span style=&quot;border-color: var(--border-color);&quot;&gt;&lt;span style=&quot;white-space: pre;&quot;&gt;&amp;nbsp;&amp;nbsp;&amp;nbsp;&amp;nbsp;&lt;span style=&quot;white-space: pre;&quot;&gt;&#x9;&lt;/span&gt;&lt;/span&gt;&lt;/span&gt;cantidad: Integer&lt;br&gt;&lt;span style=&quot;&quot;&gt;&lt;span style=&quot;white-space: pre;&quot;&gt;&amp;nbsp;&amp;nbsp;&amp;nbsp;&amp;nbsp;&lt;/span&gt;&lt;/span&gt;}&lt;br&gt;&lt;span style=&quot;&quot;&gt;&lt;span style=&quot;white-space: pre;&quot;&gt;&amp;nbsp;&amp;nbsp;&amp;nbsp;&amp;nbsp;&lt;/span&gt;&lt;/span&gt;],&lt;br&gt;precio_total: float,&lt;br&gt;repartidor: &quot;_id_empleado&quot;,&lt;br&gt;fecha_hora_entrega: Date&lt;br style=&quot;border-color: var(--border-color);&quot;&gt;&lt;div style=&quot;&quot;&gt;}&lt;/div&gt;" style="rounded=0;whiteSpace=wrap;html=1;align=left;" parent="1" vertex="1">
          <mxGeometry x="-540" y="30" width="210" height="290" as="geometry" />
        </mxCell>
        <mxCell id="juABpbqcT0G1d2rN8Gj8-17" value="&lt;div style=&quot;text-align: center;&quot;&gt;&lt;span style=&quot;background-color: initial;&quot;&gt;empleados&lt;/span&gt;&lt;/div&gt;{&lt;br&gt;nombre: &quot;String&quot;,&lt;br&gt;apellidos: &quot;String&quot;,&lt;br&gt;telefono: &quot;String&quot;,&lt;br&gt;NIF: &quot;String&quot;,&lt;br&gt;rol: &quot;String&quot; (cocinero/repartidor),&lt;br&gt;tienda: &quot;_id_tienda&quot;&lt;br&gt;}" style="rounded=0;whiteSpace=wrap;html=1;align=left;" parent="1" vertex="1">
          <mxGeometry x="-770" y="40" width="150" height="160" as="geometry" />
        </mxCell>
        <mxCell id="juABpbqcT0G1d2rN8Gj8-20" value="" style="edgeStyle=entityRelationEdgeStyle;fontSize=12;html=1;endArrow=ERoneToMany;rounded=0;exitX=1.02;exitY=0.646;exitDx=0;exitDy=0;exitPerimeter=0;entryX=-0.016;entryY=0.202;entryDx=0;entryDy=0;entryPerimeter=0;" parent="1" source="juABpbqcT0G1d2rN8Gj8-17" target="juABpbqcT0G1d2rN8Gj8-15" edge="1">
          <mxGeometry width="100" height="100" relative="1" as="geometry">
            <mxPoint x="-450" y="430" as="sourcePoint" />
            <mxPoint x="-470" y="540" as="targetPoint" />
          </mxGeometry>
        </mxCell>
        <mxCell id="juABpbqcT0G1d2rN8Gj8-21" value="" style="edgeStyle=entityRelationEdgeStyle;fontSize=12;html=1;endArrow=ERoneToMany;rounded=0;exitX=1;exitY=0.5;exitDx=0;exitDy=0;entryX=1;entryY=0.75;entryDx=0;entryDy=0;" parent="1" target="juABpbqcT0G1d2rN8Gj8-15" edge="1" source="juABpbqcT0G1d2rN8Gj8-12">
          <mxGeometry width="100" height="100" relative="1" as="geometry">
            <mxPoint x="-500" y="510" as="sourcePoint" />
            <mxPoint x="-400" y="410" as="targetPoint" />
          </mxGeometry>
        </mxCell>
        <mxCell id="juABpbqcT0G1d2rN8Gj8-22" value="" style="edgeStyle=entityRelationEdgeStyle;fontSize=12;html=1;endArrow=ERoneToMany;rounded=0;entryX=1;entryY=0.5;entryDx=0;entryDy=0;exitX=0;exitY=0.75;exitDx=0;exitDy=0;" parent="1" source="juABpbqcT0G1d2rN8Gj8-10" target="juABpbqcT0G1d2rN8Gj8-15" edge="1">
          <mxGeometry width="100" height="100" relative="1" as="geometry">
            <mxPoint x="-233" y="310" as="sourcePoint" />
            <mxPoint x="-340" y="230" as="targetPoint" />
          </mxGeometry>
        </mxCell>
        <mxCell id="58BXbUhtsEOth73NSPD--1" value="&lt;div style=&quot;text-align: center;&quot;&gt;&lt;span style=&quot;background-color: initial;&quot;&gt;categorias_pizzas&lt;/span&gt;&lt;/div&gt;&lt;div style=&quot;&quot;&gt;&lt;span style=&quot;background-color: initial;&quot;&gt;{&lt;/span&gt;&lt;/div&gt;&lt;div style=&quot;&quot;&gt;&lt;span style=&quot;background-color: initial;&quot;&gt;nombre: &quot;String&quot;&lt;/span&gt;&lt;/div&gt;&lt;div style=&quot;&quot;&gt;&lt;span style=&quot;background-color: initial;&quot;&gt;}&lt;/span&gt;&lt;/div&gt;" style="rounded=0;whiteSpace=wrap;html=1;align=left;" vertex="1" parent="1">
          <mxGeometry x="-180" y="500" width="110" height="90" as="geometry" />
        </mxCell>
        <mxCell id="58BXbUhtsEOth73NSPD--2" value="&lt;div style=&quot;text-align: center;&quot;&gt;&lt;span style=&quot;background-color: initial;&quot;&gt;tiendas&lt;/span&gt;&lt;/div&gt;{&lt;br&gt;direccion: &quot;String&quot;,&lt;br&gt;codigo_postal: &quot;String&quot;,&lt;br&gt;localidad: &quot;String&quot;,&lt;br&gt;provincia: &quot;String&quot;&lt;br&gt;}" style="rounded=0;whiteSpace=wrap;html=1;align=left;" vertex="1" parent="1">
          <mxGeometry x="-730" y="350" width="120" height="150" as="geometry" />
        </mxCell>
        <mxCell id="58BXbUhtsEOth73NSPD--3" value="" style="edgeStyle=entityRelationEdgeStyle;fontSize=12;html=1;endArrow=ERoneToMany;rounded=0;entryX=-0.011;entryY=0.682;entryDx=0;entryDy=0;entryPerimeter=0;" edge="1" parent="1" source="58BXbUhtsEOth73NSPD--2" target="juABpbqcT0G1d2rN8Gj8-15">
          <mxGeometry width="100" height="100" relative="1" as="geometry">
            <mxPoint x="-210" y="600" as="sourcePoint" />
            <mxPoint x="-480" y="250" as="targetPoint" />
          </mxGeometry>
        </mxCell>
        <mxCell id="58BXbUhtsEOth73NSPD--5" value="" style="edgeStyle=entityRelationEdgeStyle;fontSize=12;html=1;endArrow=ERoneToMany;rounded=0;exitX=0.994;exitY=0.831;exitDx=0;exitDy=0;exitPerimeter=0;entryX=0;entryY=0.5;entryDx=0;entryDy=0;" edge="1" parent="1" source="58BXbUhtsEOth73NSPD--2" target="juABpbqcT0G1d2rN8Gj8-12">
          <mxGeometry width="100" height="100" relative="1" as="geometry">
            <mxPoint x="-366" y="688" as="sourcePoint" />
            <mxPoint x="-500" y="590" as="targetPoint" />
          </mxGeometry>
        </mxCell>
        <mxCell id="juABpbqcT0G1d2rN8Gj8-12" value="&lt;div style=&quot;text-align: center;&quot;&gt;&lt;span style=&quot;background-color: initial;&quot;&gt;clientes&lt;/span&gt;&lt;/div&gt;{&lt;br&gt;nombre: &quot;String&quot;,&lt;br&gt;apellidos: &quot;String&quot;,&lt;br&gt;direccion: &quot;String&quot;,&lt;br&gt;codigo_postal: &quot;String&quot;,&lt;br&gt;localidad: &quot;String&quot;,&lt;br&gt;provincia: &quot;String&quot;,&lt;br&gt;telefono: &quot;String&quot;&lt;br&gt;}" style="rounded=0;whiteSpace=wrap;html=1;align=left;" parent="1" vertex="1">
          <mxGeometry x="-430" y="470" width="200" height="150" as="geometry" />
        </mxCell>
        <mxCell id="58BXbUhtsEOth73NSPD--8" value="" style="edgeStyle=entityRelationEdgeStyle;fontSize=12;html=1;endArrow=ERoneToMany;rounded=0;exitX=0.5;exitY=0;exitDx=0;exitDy=0;" edge="1" parent="1" source="58BXbUhtsEOth73NSPD--1">
          <mxGeometry width="100" height="100" relative="1" as="geometry">
            <mxPoint x="-390" y="330" as="sourcePoint" />
            <mxPoint x="-80" y="432" as="targetPoint" />
          </mxGeometry>
        </mxCell>
      </root>
    </mxGraphModel>
  </diagram>
</mxfile>
